<svg xmlns="http://www.w3.org/2000/svg" width="176.787" height="176.787" viewBox="0 0 176.787 176.787">
  <path id="downloading_24dp_E3E3E3_FILL0_wght400_GRAD0_opsz24" d="M160.31-703.213a85.919,85.919,0,0,1-31.348-9.415,89.476,89.476,0,0,1-25.144-19.5,90.352,90.352,0,0,1-16.726-27.138A86.552,86.552,0,0,1,81-791.607q0-34.338,22.708-59.483T160.532-880v17.723q-26.806,3.766-44.307,23.815a69.024,69.024,0,0,0-17.5,46.855,69.023,69.023,0,0,0,17.5,46.855,69.666,69.666,0,0,0,44.086,23.815Zm8.861-43.864-44.529-44.751,12.628-12.628,23.04,23.04v-54.277h17.723v54.277l22.818-22.818,12.628,12.849Zm8.861,43.864v-17.723a70.752,70.752,0,0,0,18.277-5.1,76.458,76.458,0,0,0,16.283-9.526l12.849,12.849a95.3,95.3,0,0,1-22.375,13.181A87.83,87.83,0,0,1,178.033-703.213Zm35-144.442a81.876,81.876,0,0,0-16.5-9.526,70.752,70.752,0,0,0-18.277-5.1V-880a87.828,87.828,0,0,1,25.034,6.314A91.074,91.074,0,0,1,225.442-860.5Zm24.812,112.1-12.406-12.628a69.879,69.879,0,0,0,9.3-16.283,76.731,76.731,0,0,0,4.874-18.277h18.166a104.363,104.363,0,0,1-6.646,25.144A80.882,80.882,0,0,1,237.848-735.558Zm1.772-64.91a76.731,76.731,0,0,0-4.874-18.277,69.879,69.879,0,0,0-9.3-16.283l12.406-12.628a85.477,85.477,0,0,1,13.514,22.043,86.931,86.931,0,0,1,6.425,25.144Z" transform="translate(-81 880)" fill="#673583"/>
</svg>
