<svg xmlns="http://www.w3.org/2000/svg" width="141.784" height="186.091" viewBox="0 0 141.784 186.091">
  <path id="face_right_24dp_E3E3E3_FILL0_wght400_GRAD0_opsz24" d="M261.907-791.385a8.574,8.574,0,0,1-6.314-2.548,8.574,8.574,0,0,1-2.548-6.314,8.574,8.574,0,0,1,2.548-6.314,8.574,8.574,0,0,1,6.314-2.548,8.574,8.574,0,0,1,6.314,2.548,8.574,8.574,0,0,1,2.548,6.314,8.574,8.574,0,0,1-2.548,6.314A8.574,8.574,0,0,1,261.907-791.385Zm-44.307,0a8.574,8.574,0,0,1-6.314-2.548,8.574,8.574,0,0,1-2.548-6.314,8.574,8.574,0,0,1,2.548-6.314,8.574,8.574,0,0,1,6.314-2.548,8.574,8.574,0,0,1,6.314,2.548,8.574,8.574,0,0,1,2.548,6.314,8.574,8.574,0,0,1-2.548,6.314A8.574,8.574,0,0,1,217.6-791.385Zm-.886-68.9a52.234,52.234,0,0,0-21.046,11.409,54.559,54.559,0,0,0-13.957,19.385,54.725,54.725,0,0,0,20.825-11.631A57.625,57.625,0,0,0,216.714-860.283Zm12.628-1.994a52.753,52.753,0,0,0,20.049,19.828,51.432,51.432,0,0,0,27.36,6.757A52.753,52.753,0,0,0,256.7-855.52,51.432,51.432,0,0,0,229.341-862.277ZM190.351-750.844A71.266,71.266,0,0,1,168.2-775.767a69.025,69.025,0,0,1-8.2-33.341q0-29.686,20.6-50.289T230.892-880q29.686,0,50.289,20.6t20.6,50.289a69.025,69.025,0,0,1-8.2,33.341,71.266,71.266,0,0,1-22.154,24.923l-12.849-12.849a54.11,54.11,0,0,0,18.5-18.941,51.2,51.2,0,0,0,6.978-26.474q0-2.437-.222-4.652t-.665-4.652a70.761,70.761,0,0,1-31.68-3.655,69.872,69.872,0,0,1-26.806-17.169,71.928,71.928,0,0,1-20.714,19.052,74.318,74.318,0,0,1-26.252,9.969,50.254,50.254,0,0,0,6.646,27.138A53.3,53.3,0,0,0,203.2-763.693Zm40.541,56.935-12.406-12.406,13.957-14.178h-37v-17.723h37l-13.957-14.178L230.892-764.8l35.446,35.446ZM216.714-860.283ZM229.341-862.277Z" transform="translate(-160 880)" fill="#673583"/>
</svg>
