<svg xmlns="http://www.w3.org/2000/svg" width="194.953" height="141.784" viewBox="0 0 194.953 141.784">
  <path id="group_24dp_E3E3E3_FILL0_wght400_GRAD0_opsz24" d="M40-658.216v-24.812a25.957,25.957,0,0,1,3.877-13.846,25.842,25.842,0,0,1,10.3-9.637,131.559,131.559,0,0,1,27.914-10.3,121.921,121.921,0,0,1,28.8-3.434,121.92,121.92,0,0,1,28.8,3.434,131.559,131.559,0,0,1,27.914,10.3,25.842,25.842,0,0,1,10.3,9.637,25.956,25.956,0,0,1,3.877,13.846v24.812Zm159.507,0V-684.8a35.654,35.654,0,0,0-5.428-18.72,47.87,47.87,0,0,0-15.4-15.4,111.8,111.8,0,0,1,21.268,4.542,110.878,110.878,0,0,1,18.609,7.865,39.256,39.256,0,0,1,12.185,9.858,18.925,18.925,0,0,1,4.209,11.852v26.584Zm-88.615-70.892A34.132,34.132,0,0,1,85.858-739.52a34.132,34.132,0,0,1-10.412-25.034,34.132,34.132,0,0,1,10.412-25.034A34.132,34.132,0,0,1,110.892-800a34.132,34.132,0,0,1,25.034,10.412,34.132,34.132,0,0,1,10.412,25.034,34.132,34.132,0,0,1-10.412,25.034A34.132,34.132,0,0,1,110.892-729.108Zm88.615-35.446a34.132,34.132,0,0,1-10.412,25.034,34.132,34.132,0,0,1-25.034,10.412,44.256,44.256,0,0,1-6.2-.554,54.24,54.24,0,0,1-6.2-1.218,52.7,52.7,0,0,0,9.194-15.729,51.082,51.082,0,0,0,3.212-17.945,51.082,51.082,0,0,0-3.212-17.945,52.7,52.7,0,0,0-9.194-15.729,26.935,26.935,0,0,1,6.2-1.44,58.18,58.18,0,0,1,6.2-.332,34.132,34.132,0,0,1,25.034,10.412A34.132,34.132,0,0,1,199.507-764.554ZM57.723-675.939H164.061v-7.089a8.33,8.33,0,0,0-1.218-4.431,8.623,8.623,0,0,0-3.212-3.1,115.514,115.514,0,0,0-24.148-8.972,102.8,102.8,0,0,0-24.591-2.991A102.8,102.8,0,0,0,86.3-699.533a115.514,115.514,0,0,0-24.148,8.972,8.623,8.623,0,0,0-3.212,3.1,8.33,8.33,0,0,0-1.218,4.431Zm53.169-70.892a17.066,17.066,0,0,0,12.517-5.206,17.066,17.066,0,0,0,5.206-12.517,17.066,17.066,0,0,0-5.206-12.517,17.066,17.066,0,0,0-12.517-5.206,17.066,17.066,0,0,0-12.517,5.206,17.066,17.066,0,0,0-5.206,12.517,17.066,17.066,0,0,0,5.206,12.517A17.066,17.066,0,0,0,110.892-746.831ZM110.892-675.939ZM110.892-764.554Z" transform="translate(-40 800)" fill="#673583"/>
</svg>
