<svg xmlns="http://www.w3.org/2000/svg" xmlns:xlink="http://www.w3.org/1999/xlink" width="91.277" height="93.354" viewBox="0 0 91.277 93.354">
  <defs>
    <clipPath id="clip-path">
      <rect id="Rectángulo_17" data-name="Rectángulo 17" width="91.277" height="93.354" fill="#ec7e22"/>
    </clipPath>
  </defs>
  <g id="Grupo_2" data-name="Grupo 2" clip-path="url(#clip-path)">
    <path id="Trazado_2" data-name="Trazado 2" d="M568.58,712.23h-.139a.579.579,0,0,0-.642.642v.182a.579.579,0,0,0,.642.642h.139a.579.579,0,0,0,.642-.642v-.182a.58.58,0,0,0-.642-.642" transform="translate(-502.791 -630.686)" fill="#ec7e22"/>
    <path id="Trazado_3" data-name="Trazado 3" d="M574.686,659.7h-4.751a.676.676,0,0,0-.466.166.563.563,0,0,0-.187.444.58.58,0,0,0,.187.449.664.664,0,0,0,.466.171h1.68v5.607a.622.622,0,0,0,.193.465.676.676,0,0,0,.492.187.709.709,0,0,0,.508-.187.614.614,0,0,0,.2-.465v-5.607h1.68a.676.676,0,0,0,.466-.166.564.564,0,0,0,.187-.444.58.58,0,0,0-.187-.449.664.664,0,0,0-.466-.171" transform="translate(-504.104 -584.173)" fill="#ec7e22"/>
    <path id="Trazado_4" data-name="Trazado 4" d="M636.233,660.934a.676.676,0,0,0,.466-.166.551.551,0,0,0,.187-.433.6.6,0,0,0-.187-.455.653.653,0,0,0-.466-.176h-3.585a.64.64,0,0,0-.653.653v6.185a.64.64,0,0,0,.653.653h3.585a.664.664,0,0,0,.466-.171.568.568,0,0,0,.187-.439.6.6,0,0,0-.187-.433.632.632,0,0,0-.466-.187h-2.9v-1.98h2.418a.676.676,0,0,0,.466-.166.552.552,0,0,0,.187-.433.6.6,0,0,0-.187-.455.653.653,0,0,0-.466-.177h-2.418v-1.819Z" transform="translate(-559.637 -584.173)" fill="#ec7e22"/>
    <path id="Trazado_5" data-name="Trazado 5" d="M687.616,665.281a.762.762,0,0,0-.444.075,1.976,1.976,0,0,1-.556.193,3.159,3.159,0,0,1-.578.053,2.965,2.965,0,0,1-.974-.155,2.084,2.084,0,0,1-.781-.476,2.213,2.213,0,0,1-.519-.8,3.121,3.121,0,0,1-.187-1.134,2.981,2.981,0,0,1,.166-1.017,2.25,2.25,0,0,1,.487-.8A2.168,2.168,0,0,1,685,660.7a2.761,2.761,0,0,1,1.033-.182,2.679,2.679,0,0,1,.594.064,2.757,2.757,0,0,1,.541.182.831.831,0,0,0,.444.086.486.486,0,0,0,.358-.214.659.659,0,0,0,.155-.546.569.569,0,0,0-.326-.439,3.741,3.741,0,0,0-.845-.31,3.963,3.963,0,0,0-.92-.107,4.1,4.1,0,0,0-1.541.284,3.7,3.7,0,0,0-1.225.792,3.523,3.523,0,0,0-.8,1.2,3.986,3.986,0,0,0-.284,1.52,4.21,4.21,0,0,0,.31,1.675,3.362,3.362,0,0,0,.851,1.2,3.7,3.7,0,0,0,1.231.728,4.318,4.318,0,0,0,1.461.246,3.831,3.831,0,0,0,.61-.048,4.337,4.337,0,0,0,.594-.139,3.766,3.766,0,0,0,.573-.23.565.565,0,0,0,.326-.412.647.647,0,0,0-.155-.551.561.561,0,0,0-.369-.225" transform="translate(-604.081 -583.758)" fill="#ec7e22"/>
    <path id="Trazado_6" data-name="Trazado 6" d="M749.966,659.89a.642.642,0,0,0-.482-.187.675.675,0,0,0-.471.187.607.607,0,0,0-.2.466v2.461H745.4v-2.461a.615.615,0,0,0-.2-.466.644.644,0,0,0-.455-.187.678.678,0,0,0-.492.187.624.624,0,0,0-.193.466v6.185a.632.632,0,0,0,.664.653.673.673,0,0,0,.471-.187.607.607,0,0,0,.2-.465v-2.493h3.414v2.493a.614.614,0,0,0,.2.465.643.643,0,0,0,.455.187.672.672,0,0,0,.5-.187.631.631,0,0,0,.187-.465v-6.185a.643.643,0,0,0-.182-.466" transform="translate(-658.871 -584.173)" fill="#ec7e22"/>
    <path id="Trazado_7" data-name="Trazado 7" d="M7.776,598.176a1.09,1.09,0,0,0-.636.108,2.845,2.845,0,0,1-.8.276,4.522,4.522,0,0,1-.827.077,4.243,4.243,0,0,1-1.395-.222A2.983,2.983,0,0,1,3,597.732a3.169,3.169,0,0,1-.743-1.149,4.469,4.469,0,0,1-.268-1.624,4.263,4.263,0,0,1,.238-1.456,3.213,3.213,0,0,1,.7-1.142,3.1,3.1,0,0,1,1.111-.743,3.954,3.954,0,0,1,1.479-.26,3.852,3.852,0,0,1,.85.092,3.971,3.971,0,0,1,.774.261,1.188,1.188,0,0,0,.636.123.7.7,0,0,0,.513-.307.944.944,0,0,0,.222-.781.814.814,0,0,0-.467-.628,5.349,5.349,0,0,0-1.211-.444,5.682,5.682,0,0,0-1.318-.153,5.867,5.867,0,0,0-2.206.406,5.3,5.3,0,0,0-1.755,1.134,5.052,5.052,0,0,0-1.149,1.724A5.712,5.712,0,0,0,0,594.958a6.029,6.029,0,0,0,.444,2.4,4.819,4.819,0,0,0,1.218,1.724,5.293,5.293,0,0,0,1.762,1.042,6.182,6.182,0,0,0,2.092.352,5.52,5.52,0,0,0,.873-.069,6.319,6.319,0,0,0,.85-.2,5.437,5.437,0,0,0,.82-.33.808.808,0,0,0,.467-.59A.925.925,0,0,0,8.3,598.5a.8.8,0,0,0-.529-.322" transform="translate(0 -522.024)" fill="#ec7e22"/>
    <path id="Trazado_8" data-name="Trazado 8" d="M96.213,590.054a.784.784,0,0,0-.628.268.989.989,0,0,0-.23.667v5.547a2.4,2.4,0,0,1-1.272,2.191,2.536,2.536,0,0,1-1.226.306,2.352,2.352,0,0,1-2.03-1.172,2.564,2.564,0,0,1-.329-1.325v-5.547a.882.882,0,0,0-.283-.667.9.9,0,0,0-.636-.268.969.969,0,0,0-.7.268.893.893,0,0,0-.276.667v5.547a4.563,4.563,0,0,0,.544,2.252,3.936,3.936,0,0,0,1.5,1.532,4.7,4.7,0,0,0,4.421,0,3.954,3.954,0,0,0,1.494-1.532,4.568,4.568,0,0,0,.544-2.252v-5.547a.953.953,0,0,0-.245-.667.832.832,0,0,0-.644-.268" transform="translate(-78.454 -522.498)" fill="#ec7e22"/>
    <path id="Trazado_9" data-name="Trazado 9" d="M183.929,590.189a.969.969,0,0,0-.7.268.892.892,0,0,0-.276.667v8.857a.905.905,0,0,0,.95.934.966.966,0,0,0,.674-.268.87.87,0,0,0,.291-.667v-8.857a.88.88,0,0,0-.284-.667.92.92,0,0,0-.651-.268" transform="translate(-162.002 -522.617)" fill="#ec7e22"/>
    <path id="Trazado_10" data-name="Trazado 10" d="M227.757,591.759a4.1,4.1,0,0,0-1.448-1.157,4.464,4.464,0,0,0-1.961-.414h-3.662a.916.916,0,0,0-.934.934v8.857a.916.916,0,0,0,.934.934h3.662a4.231,4.231,0,0,0,2.505-.72,4.575,4.575,0,0,0,1.555-1.938,6.644,6.644,0,0,0,.536-2.7,7.037,7.037,0,0,0-.3-2.076,5.177,5.177,0,0,0-.889-1.716m-1.088,5.578a2.857,2.857,0,0,1-.9,1.318,2.422,2.422,0,0,1-1.578.5h-2.528v-7.2h2.528a2.405,2.405,0,0,1,2.1,1.08,3.549,3.549,0,0,1,.5,1.149,5.7,5.7,0,0,1,.161,1.372,5.431,5.431,0,0,1-.283,1.785" transform="translate(-194.591 -522.617)" fill="#ec7e22"/>
    <path id="Trazado_11" data-name="Trazado 11" d="M325.149,611.636c0-4.9,1.51-10.009,2.776-14.734l.609-2.265a5.929,5.929,0,0,0,.341-1.583l-.268-.268-.1.073-.024-.171-.292-.244.024-.048c-.219-.025-.414-.171-.633-.171a.5.5,0,0,0-.414.244c-.219.268-.365.584-.56.852-.39.535-.828,1-1.217,1.534-1.121,1.486-2.168,3.02-3.239,4.554-.56.8-1.121,1.632-1.608,2.484a12.549,12.549,0,0,1-.755,1.315,6.87,6.87,0,0,1,.049-1l.536-4.6c.122-.95.268-1.9.463-2.825.049-.268.243-1.023.243-1.242v-.316l-.317-.219a10.954,10.954,0,0,0-.609,1.7l-.073-.024.56-1.876-.17.146-.073-.195-.463.9h-.025l.414-.974-.268-.073-.171.146.025-.171-.219-.122c-.317.244-.633.463-.926.731a8.151,8.151,0,0,0-1.388,2c-.707,1.263-1.355,2.551-1.962,3.858l-.643-1.533c.22-.616.449-1.229.681-1.838.219-.56,1.583-3.385,1.583-3.629a.6.6,0,0,0-.195-.389l.024-.1-.317-.536h-.122l-.2-.316c-.633.292-1.242.657-1.875.974-.381.19-.991.5-1.685.83l-.962-2.292a.91.91,0,0,0-.345-.452.9.9,0,0,0-.513-.161.8.8,0,0,0-.544.138,1,1,0,0,0-.375.475l-1.608,3.863c-.144-.028-.246-.112-.347-.112a.21.21,0,0,0-.17.146,1.748,1.748,0,0,0,.252.6l-1.941,4.661a1.007,1.007,0,0,0-.046.291.834.834,0,0,0,.2.567.768.768,0,0,0,.613.23.806.806,0,0,0,.483-.161.945.945,0,0,0,.329-.452l.795-1.869h3.719a22.12,22.12,0,0,0-1.31,6.674,4.218,4.218,0,0,0,1.169,2.728,4.414,4.414,0,0,0,.877.486l.243-.267.122.1a1.032,1.032,0,0,0,.049-.268,8.753,8.753,0,0,1,.536-2.362c.707-1.924,1.437-3.848,2.314-5.7.316-.657.584-1.363.95-2-.244.706-.658,1.34-.926,2.021l-.049.171c-.146.438-.365.8-.536,1.218a31.592,31.592,0,0,0-2.095,5.845,4.588,4.588,0,0,0-.122.8.824.824,0,0,0,.025.244l.268-.024.049-.219a19.68,19.68,0,0,1,.682-2.679,58.826,58.826,0,0,1,3.678-8.426c-.243,2.533-.414,5.065-.414,7.623,0,1-.146,2.849.925,3.336.17.073.365.122.56.2l.1-.122a.415.415,0,0,0,.243.073c.146,0,.341-.073.341-.244,0-.195-.122-.39-.122-.584a.706.706,0,0,1,.049-.219,27.682,27.682,0,0,1,1.948-4.116c1.1-1.875,2.314-3.751,3.58-5.528l.268-.365a23.2,23.2,0,0,1-.633,2.363,56.138,56.138,0,0,0-1.535,6.356c-.1.657-.146,1.339-.219,2-.073.755-.17,1.51-.17,2.265a18.21,18.21,0,0,0,.682,5.017,1.541,1.541,0,0,0,1.486,1.072,2.627,2.627,0,0,0,.439-.025c-.073-.316-.219-.608-.292-.925a12.6,12.6,0,0,1-.219-2.874m3.288-18.728a.249.249,0,0,0,.024.073.464.464,0,0,1-.122.244Zm-17.121,1.242c-.024.024-.024.024-.049.024.025,0,.025-.024.049-.024m-.549-1.5.267.622c-.219.094-.435.185-.646.269Zm-1.525,3.586.444-1.045a12.646,12.646,0,0,0,1.864-.715l.755,1.76Zm5.118-3.546a.146.146,0,0,0,.024.1,1.628,1.628,0,0,1-.316.122,2.289,2.289,0,0,0,.292-.219m-.39.243-.049.049-.682.292a4.038,4.038,0,0,1,.731-.341m.122.414c-.174.418-.36.833-.547,1.248l-.373-.888a3.559,3.559,0,0,1,.919-.36m-1.169-.609v-.024l.024.024Zm.146,13.175a.089.089,0,0,0-.073-.025c.049-.1.049-.195.1-.292a1.381,1.381,0,0,0-.024.316m.073,1.072h-.025a.345.345,0,0,1,.049-.146c0,.049-.025.1-.025.146m.171-.073h-.024l.024-.024Zm.024-.877v-.1l.024.024Zm-.1-.925.1-.293.073-.025a1.333,1.333,0,0,0-.17.317m.268-.731c.024-.122.024-.268.146-.341Zm.365-.073v-.024l.024.024Zm-.073-.706v-.073a.183.183,0,0,1,.122-.171Zm.244.293-.024-.025h.024Zm.268-.682-.024-.024h.024Zm-1.266,1.486a8.7,8.7,0,0,1,.122-1.121,25.628,25.628,0,0,1,.786-3.543,1.021,1.021,0,0,0,.249.279.8.8,0,0,0,.5.169c.026,0,.051,0,.076,0-.609,1.389-1.18,2.8-1.732,4.22m1.973-3.215v-.025l.024.025Zm1-3.02c0-.024,0-.024.025-.049,0,.024-.025.024-.025.049m.1-.219c.025-.122.025-.268.171-.316-.049.1-.122.195-.171.316m.463-1.023a5.171,5.171,0,0,0,.268-.511.634.634,0,0,1-.268.511m.365-.682.1-.048a.128.128,0,0,1-.1.048m-3.264,10.448h-.024l.024-.025Zm.2-.925v-.024h.024Zm4.432-10.789a.149.149,0,0,1,.024-.1h.024Zm.024-1.072v-.024l.024.024Zm1.754.682h.025c0,.073-.025.146-.025.219l-.049-.024Zm-.1.414h.024v.146h-.024Zm-.877,9.45h-.024V604.5h.024Zm0-.487h-.024v-.171h.024Zm0-.341h-.024v-.073h.024Zm.049-.365h-.025v-.074h.025Zm-.025-.268v-.755c0-.731.122-1.7.195-2.436.1-1.072.195-2.143.365-3.215l.073-.1c-.219,2.168-.438,4.335-.633,6.5m.609-6.7a6.793,6.793,0,0,1,.17-.974l.073.024-.219,1.12c0-.073-.024-.122-.024-.17m1.291,6.259.025-.073h.024Zm3.045-4.822c-.025,0-.025,0-.025-.025h.025Zm.828,8.524h-.025v-.1h.025Zm.049-.365h-.025v-.1h.049a.147.147,0,0,0-.024.1m1.412-6.186h.025l-.073.073Zm-.219.731.025.024c0,.025,0,.025-.025.049Zm-.146.56v.024h-.024Zm-.268,1.242-.1.268c-.025,0-.025,0-.049-.024Zm-.17.536h.024c-.024.024-.024.024-.024.048Zm-.073.341v.122l-.049-.025Zm-.1.268.024.024a.091.091,0,0,1-.024.074Zm-.049.365a1.654,1.654,0,0,0-.049.341h-.073Zm-.268,1.266v.195h-.049l.049-.195v-.1c.025,0,.025,0,.049.024Zm.122-.731h.049a1.866,1.866,0,0,0-.049.365l-.073-.024Z" transform="translate(-271.031 -522.105)" fill="#ec7e22"/>
    <path id="Trazado_12" data-name="Trazado 12" d="M495.588,633.993v-.268l-.365.268.195-.39h-.244l-.1-.195-.414-.2a4.615,4.615,0,0,0-1.388.561c-1.851.95-3.044,1.68-5.212,1.68a2.106,2.106,0,0,1-.146-.95,28.617,28.617,0,0,1,.658-4.53c.17-1,.414-2,.658-3,1.072-.1,2.168-.244,3.239-.365a2.577,2.577,0,0,0,1.34-.438l.122-.146-.146-.024.024-.122a6.667,6.667,0,0,1-1.534.22l1.559-.341-.025-.073-.146.025.025-.1-.122-.049.219-.146-.316-.195.219-.122v-.073a6.729,6.729,0,0,0-1.388-.146c-.877,0-1.729.146-2.606.219.487-1.851,1.145-3.653,1.729-5.479,1.583-.146,3.166-.244,4.749-.268a1.415,1.415,0,0,0,.877-.244l.024-.073-.122-.048.049-.073h-1.023l1.047-.146v-.049l-.195-.049.122-.243-.171-.171.122-.122a4.04,4.04,0,0,0-2.021-.341c-.95,0-1.9.122-2.849.146l-1.242.048-.17-.219a.66.66,0,0,0-.292.146,2.346,2.346,0,0,1-.682.268,2.012,2.012,0,0,1-.122.852c-.146.342-.365.682-.536,1.048a23.069,23.069,0,0,0-1.047,2.533,54.614,54.614,0,0,0-2.46,9.815,7.241,7.241,0,0,0-.073,1.022,5.565,5.565,0,0,0,.146,1.705,5.08,5.08,0,0,0,.536.731c1,1.144,2.192,1.218,3.629,1.218a8.383,8.383,0,0,0,2.679-.463c.438-.171.877-.414,1.291-.609a3.538,3.538,0,0,0,2.143-2.265l-.049-.049Zm-2.265-7.793h.024c0,.024,0,.024-.024.024Zm2.338-7.306h.073v.024h-.073Zm-.56,0h.341v.024H495.1Zm-.243,0v.024c-.024,0-.024,0-.024-.024Zm-.341,0h.122v.024h-.122Zm-1.412-.658v.024h-.049c.024,0,.024-.024.049-.024m-1.51.852c.755-.049,1.534-.146,2.289-.146h.414l-2.7.2Zm.1,7.063h.341v.024h-.341Zm-.536.024h.317l.025.048h-.341Zm-.487-.755h.025v.024h-.025Zm-.414.049v.048h-.1l-.025-.048Zm-.463.073h.073v.024h-.073Zm1.169.658.024.048c-.536.073-1.047.146-1.583.244l-.024-.073a11.2,11.2,0,0,1,1.583-.219m-2.581,1.072v.024h-.024Zm-.049.17v.074c-.024-.025-.024-.025-.024-.049Zm-.17.706h.024l-.024.024Zm-.049.2h.025l-.025.048Zm-.049.195h.024v.049h-.024Zm-.1.414.025.025v.1h-.025Zm-.243,1.534v-.049h.024c-.024.024-.024.024-.024.049m.1-.731v-.1a.147.147,0,0,1,.024.1Zm.049-.244v-.025l.025-.048a.089.089,0,0,1-.025.073" transform="translate(-429.832 -547.043)" fill="#ec7e22"/>
    <path id="Trazado_13" data-name="Trazado 13" d="M354.9,216.136a6.157,6.157,0,1,0,6.157,6.157,6.157,6.157,0,0,0-6.157-6.157" transform="translate(-308.819 -191.39)" fill="#ec7e22"/>
    <path id="Trazado_14" data-name="Trazado 14" d="M264.255,131.459l0,0q.164-.165.323-.335l.015-.016q.154-.163.3-.33l.029-.032q.143-.16.283-.323l.038-.045q.134-.158.266-.318l.049-.061c.083-.1.166-.206.247-.31l.059-.077c.077-.1.153-.2.229-.3l.066-.091c.072-.1.143-.2.213-.3l.073-.107c.066-.1.132-.192.2-.289l.079-.122c.061-.093.122-.187.182-.281.029-.046.057-.092.085-.138.056-.091.112-.181.167-.273.03-.051.059-.1.089-.154.052-.088.1-.176.153-.265.031-.055.061-.111.091-.167l.014-.025.031-.056c.032-.059.065-.118.1-.178.023-.044.045-.088.068-.132l.046-.09c.036-.071.073-.141.109-.212l.041-.085.049-.1.005-.01c.04-.081.08-.162.118-.245s.065-.144.1-.216.071-.155.105-.233c.026-.059.05-.118.075-.178s.06-.14.089-.21l.028-.068c.019-.046.036-.093.055-.139.031-.077.061-.153.091-.231l.037-.093c.013-.034.025-.07.038-.1q.047-.125.092-.252c.013-.038.028-.075.041-.113l.023-.07c.033-.1.065-.192.1-.289.013-.039.027-.078.039-.117l.011-.035c.047-.148.094-.3.138-.448q.037-.125.067-.249a5.013,5.013,0,0,0-8.863-4.2q-.139.182-.261.378c-.028.045-.056.09-.082.136-.053.091-.1.185-.151.28a5.042,5.042,0,0,0-.327.828,9.655,9.655,0,0,1-12,6.539c-.094-.028-.187-.057-.279-.087l-.08-.027-.2-.071-.078-.028q-.122-.045-.242-.094l-.025-.01q-.143-.058-.282-.12l-.01,0q-.134-.059-.264-.123l-.025-.012a9.606,9.606,0,0,1-2.7-1.955v0q-.161-.166-.313-.338-.071-.081-.141-.164-.184-.218-.355-.446a9.657,9.657,0,0,1,6.889-15.417l-.005,0a9.613,9.613,0,0,1,2.669.135l.016,0q.216.042.432.094l.024.006c.144.035.288.074.432.116.078.023.156.044.234.063l.077.017c.053.012.105.024.158.034l.091.016.144.023.1.013.139.015.1.009.14.008.1,0h.233q.112,0,.224-.009l.087-.007.14-.013.11-.014.114-.016.117-.02.1-.02.122-.026.094-.023.127-.033.081-.024.137-.042.049-.017a5.018,5.018,0,0,0,.531-.213l.013-.006c.055-.026.109-.053.162-.081l.033-.017q.078-.042.155-.086l.032-.019q.079-.046.156-.095l.021-.013a4.993,4.993,0,0,0,2.107-2.805v0c.022-.073.041-.147.059-.22.006-.026.012-.053.018-.079.011-.048.021-.1.031-.145.006-.032.012-.064.018-.1s.014-.083.02-.124.011-.072.016-.108c0-.01,0-.02,0-.031.014-.113.024-.226.03-.339,0-.008,0-.017,0-.026a5.014,5.014,0,0,0-3.591-5.055,19.687,19.687,0,1,0,8.451,32.71" transform="translate(-204.159 -86.731)" fill="#ec7e22"/>
    <path id="Trazado_15" data-name="Trazado 15" d="M152.111,60.038h0q.651.227,1.315.425l.131.039.037.011.049.015q.3.088.61.17l.146.04c.169.044.338.087.508.128h0l.014,0,.242.059.33.075.147.032.294.064.316.063.11.022.351.067.2.035.261.045.3.048q.252.04.506.075l.289.039.02,0,.085.011.354.043.253.028q.3.032.6.059l.166.013q.271.022.543.039l.218.013c.22.012.44.023.661.031l.083,0q.3.01.6.013a3.774,3.774,0,0,0,.677.056,30.677,30.677,0,0,0,12.547-2.786c-.086.067-.171.136-.258.2a30.847,30.847,0,0,0,17.942-23.53c0,.009,0,.019,0,.028.091-.6.162-1.2.217-1.8.011-.112.022-.224.031-.336q.008-.09.015-.179.026-.316.046-.633c0-.044,0-.089.007-.133q.018-.312.029-.626c0-.028,0-.055,0-.083.008-.226.012-.453.014-.68,0-.044,0-.089,0-.133q0-.335,0-.671,0-.067,0-.135-.006-.342-.02-.686c0-.034,0-.068,0-.1-.011-.242-.023-.485-.04-.728a30.909,30.909,0,0,0-1.819-8.573,3.789,3.789,0,0,0-.18-.41A30.888,30.888,0,0,0,178.277,4.537a3.781,3.781,0,0,0-.523-.368,30.726,30.726,0,0,0-17.582-4.1c-.192.013-.383.028-.574.045l-.148.013-.126.012L159,.174l-.146.015-.21.024-.131.016q-.34.041-.677.089l-.029,0-.125.019-.055.008q-.254.038-.507.081l-.141.024q-.33.057-.658.121L156.186.6q-.315.063-.627.132L155.5.747q-.327.073-.651.154L154.69.94q-.314.079-.626.165l-.143.04q-.285.08-.567.164l-.1.031q-.306.093-.609.193l-.173.057q-.3.1-.588.2l-.16.058q-.252.092-.5.187l-.143.054q-.283.11-.562.226l-.2.082q-.273.115-.543.234l-.184.083q-.215.1-.428.2L148.979,3q-.257.123-.511.251l-.222.112c-.165.084-.33.17-.493.257l-.213.116-.352.195-.222.125q-.23.132-.458.268l-.247.149q-.183.111-.365.225-.161.1-.32.2l-.277.18-.311.207q-.176.119-.35.24l-.271.191-.246.178q-.209.152-.415.308l-.2.155q-.221.17-.439.344l-.2.157q-.145.118-.289.237l-.158.133q-.242.2-.479.411l-.14.123q-.461.409-.906.836l-.091.088-.014.013-.01.01q-.25.243-.495.491l-.06.06-.036.037q-.239.245-.472.494l-.093.1q-.149.16-.295.323l-.049.055-.072.081-.127.142c-.111.126-.22.253-.328.381l-.038.044c-.052.061-.105.122-.157.184-.093.111-.183.224-.275.336q-.81,1-1.537,2.06l0,.006q-.2.3-.4.6l-.013.02q-.2.3-.386.612l-.011.018q-.192.312-.376.629l0,.005a30.728,30.728,0,0,0-2.705,6.075l-.026.081c-.059.187-.116.375-.172.564-.021.07-.042.139-.062.209q-.07.244-.136.489-.041.149-.08.3-.055.213-.108.428-.046.189-.09.379c-.028.123-.056.245-.083.369-.034.154-.066.308-.1.462-.02.1-.041.2-.06.3-.037.19-.071.381-.1.573-.012.068-.024.135-.035.2q-.063.379-.116.76c0,.01,0,.019,0,.028a30.735,30.735,0,0,0-.28,3.367c0,.038,0,.076,0,.115q-.009.349-.01.7c0,.028,0,.055,0,.083,0,.057,0,.113,0,.17,0,.165,0,.331.006.5,0,.125.007.25.011.375s.008.249.014.374c.007.166.017.332.027.5,0,.057.005.113.009.169,0,.029.005.058.007.088q.021.3.047.59c.005.058.01.116.016.174.011.115.022.23.034.345s.024.208.036.312c0,.038.009.076.013.114.01.082.018.164.029.245a30.913,30.913,0,0,0,11.115,20.041,3.776,3.776,0,0,0,.609.4,31,31,0,0,0,3.253,2.21h0q1.283.757,2.642,1.392h0l.026.012q.651.3,1.318.576l.093.038q.69.28,1.4.527l.023.008m-4.955-11.874a23.4,23.4,0,0,1-5.4-7.129,23.172,23.172,0,0,1-1.182-17.466,23.472,23.472,0,0,1,11.419-13.4q.845-.447,1.728-.821a23,23,0,0,1,3.724-1.023,23.632,23.632,0,0,1,8.989.031,23.4,23.4,0,0,1,8.279,3.382,23.171,23.171,0,0,1,9.918,14.425,23.4,23.4,0,0,1,.193,8.942,23.638,23.638,0,0,1-3.19,8.4,23.008,23.008,0,0,1-2.744,3.618c-.266.271-.523.552-.8.817s-.552.524-.836.779l-.7.6q-.306.238-.621.466l-.058.042q-.662.477-1.358.909l-.053.033q-.7.431-1.431.813l-.056.029q-.178.092-.357.182h0a23.226,23.226,0,0,1-8.79,2.375l-1.146.01-1.143-.045c-.38-.024-.759-.062-1.138-.092s-.755-.1-1.131-.147a23,23,0,0,1-4.4-1.133,23.632,23.632,0,0,1-7.718-4.608" transform="translate(-116.337 0)" fill="#ec7e22"/>
  </g>
</svg>
