<svg id="Grupo_14" data-name="Grupo 14" xmlns="http://www.w3.org/2000/svg" width="102.9" height="93.191" viewBox="0 0 102.9 93.191">
  <path id="Trazado_20" data-name="Trazado 20" d="M454.712,614.543H451l-.793,1.866a.943.943,0,0,1-.329.451.8.8,0,0,1-.482.161.767.767,0,0,1-.612-.229.832.832,0,0,1-.2-.566,1.007,1.007,0,0,1,.046-.291l1.937-4.652a1.746,1.746,0,0,1-.251-.6.209.209,0,0,1,.17-.146c.1,0,.2.084.346.113l1.606-3.857a1,1,0,0,1,.375-.474.8.8,0,0,1,.543-.138.9.9,0,0,1,.513.161.91.91,0,0,1,.344.451l.961,2.288c.693-.332,1.3-.638,1.682-.828.632-.317,1.24-.681,1.872-.973l.195.316h.122l.316.535-.024.1a.6.6,0,0,1,.195.388c0,.243-1.361,3.064-1.58,3.623-.232.609-.461,1.22-.68,1.834l.642,1.53c.606-1.305,1.253-2.59,1.959-3.851a8.136,8.136,0,0,1,1.386-1.993c.292-.268.608-.486.924-.729l.219.122-.024.171.171-.146.267.073-.413.973h.024l.462-.9.073.194.17-.146-.559,1.872.073.024a10.917,10.917,0,0,1,.608-1.7l.316.219v.316c0,.219-.195.973-.243,1.24-.195.924-.341,1.872-.462,2.82l-.535,4.6a6.847,6.847,0,0,0-.049,1,12.509,12.509,0,0,0,.754-1.313c.486-.85,1.045-1.677,1.6-2.479,1.07-1.532,2.115-3.063,3.233-4.546.389-.534.827-1,1.215-1.531.195-.268.341-.583.559-.851a.5.5,0,0,1,.413-.243c.219,0,.413.146.632.17l-.024.048.292.243.024.171.1-.073.268.267a5.922,5.922,0,0,1-.341,1.58l-.608,2.261c-1.264,4.717-2.771,9.822-2.771,14.708a12.585,12.585,0,0,0,.219,2.869c.073.316.219.608.292.924a2.623,2.623,0,0,1-.438.024,1.539,1.539,0,0,1-1.483-1.07,18.176,18.176,0,0,1-.681-5.008c0-.754.1-1.507.17-2.261.073-.657.121-1.337.219-1.993a56.04,56.04,0,0,1,1.532-6.345,23.127,23.127,0,0,0,.632-2.359l-.268.365c-1.264,1.775-2.48,3.647-3.574,5.519a27.625,27.625,0,0,0-1.945,4.109.7.7,0,0,0-.049.219c0,.194.122.389.122.583,0,.17-.194.243-.34.243a.413.413,0,0,1-.243-.073l-.1.122c-.195-.073-.389-.122-.559-.195-1.07-.486-.924-2.334-.924-3.331,0-2.553.17-5.081.413-7.609a58.721,58.721,0,0,0-3.671,8.411,19.65,19.65,0,0,0-.681,2.675l-.049.219-.267.024a.826.826,0,0,1-.024-.243,4.576,4.576,0,0,1,.121-.8,31.542,31.542,0,0,1,2.091-5.835c.17-.414.389-.778.535-1.216l.049-.17c.268-.681.681-1.313.924-2.018-.365.632-.632,1.337-.948,1.993-.875,1.848-1.6,3.769-2.31,5.689a8.74,8.74,0,0,0-.535,2.358,1.029,1.029,0,0,1-.049.268l-.122-.1-.243.267a4.413,4.413,0,0,1-.875-.486,4.21,4.21,0,0,1-1.167-2.723A22.079,22.079,0,0,1,454.712,614.543Zm-2.52-2.8-.443,1.042h3.059l-.754-1.757A12.642,12.642,0,0,1,452.192,611.742Zm3.481-1.481.372.886c.186-.415.372-.828.546-1.246A3.548,3.548,0,0,0,455.673,610.26Zm-2.135-.435-.267-.621-.378.89C453.1,610.01,453.319,609.919,453.538,609.825Zm3.736,7.192q-.038,0-.076,0a.8.8,0,0,1-.5-.168,1.015,1.015,0,0,1-.25-.276,25.543,25.543,0,0,0-.784,3.534,8.666,8.666,0,0,0-.122,1.119C456.1,619.81,456.665,618.4,457.274,617.017Zm-.8-7.53a4.012,4.012,0,0,0-.729.34l.681-.291Zm.389-.243a2.269,2.269,0,0,1-.292.219,1.627,1.627,0,0,0,.316-.121A.146.146,0,0,1,456.858,609.244Zm-1.434.025v.024h.024Zm5.4,1.459v.024h.025Zm-1.288,2.31-.1.048A.128.128,0,0,0,459.532,613.037Zm-.754,1.434c-.146.048-.146.194-.171.316C458.657,614.666,458.73,614.569,458.779,614.471Zm2.844,4.594v.754c.194-2.164.413-4.328.632-6.491l-.073.1c-.17,1.07-.268,2.139-.365,3.209C461.744,617.364,461.623,618.336,461.623,619.066Zm-3.087-4.109c-.024.024-.024.024-.024.049C458.511,614.981,458.535,614.981,458.535,614.957Zm8.873,7.658v.1h.025a.147.147,0,0,1,.024-.1Zm-11.572-.145v.1l.024-.073ZM457.514,618v.025h.024Zm-1.848,5.373a.345.345,0,0,0-.049.146h.025C455.642,623.466,455.667,623.418,455.667,623.369Zm11.694-.389v.1h.024v-.1Zm-10.989-.413v.024l.024-.024Zm-.195.924-.024.024h.024Zm10.357-8.947c0,.025,0,.025.024.025v-.025Zm2.309,1.993-.049.073.073-.073Zm-5.3,2.772-.024.073.049-.073Zm5.081-2.042v.073c.024-.024.024-.024.024-.049Zm-.583,2.334v.048c0-.025,0-.025.024-.048Zm-12.545,2.82a.089.089,0,0,1,.073.024,1.376,1.376,0,0,1,.024-.316C455.545,622.227,455.545,622.324,455.5,622.421Zm3.841-9.165a5.176,5.176,0,0,1-.267.51A.634.634,0,0,0,459.337,613.256Zm-3.525,10.162-.024.025h.024Zm.7-3.015.024.025V620.4Zm-.146.414v.024h.024Zm11.5-.608v.1a.09.09,0,0,0,.024-.073Zm-.268,1.239.073.024a1.868,1.868,0,0,1,.049-.365h-.049Zm-6.029-1.07v.073h.024v-.073Zm6.248.195-.122.34h.073A1.654,1.654,0,0,1,467.822,620.573Zm-.267,1.264.049-.073c-.024-.024-.024-.024-.049-.024Zm0,0-.048.194h.048Zm-5.98-1.216v.17h.024v-.17Zm0,.414v.243h.024v-.243Zm-5.422-.462c-.121.073-.121.219-.146.34Zm6.321-8.729v.146h.024v-.146Zm.049-.219.049.024c0-.073.024-.146.024-.219h-.024Zm-6.224,8.436v.073l.122-.243A.183.183,0,0,0,456.3,620.063Zm5.932-6.929c0,.048.024.1.024.17l.219-1.118-.073-.024A6.778,6.778,0,0,0,462.231,613.134Zm8.679-3.672-.1.317a.464.464,0,0,0,.121-.243A.248.248,0,0,1,470.91,609.462Zm-2.99,10.576.049.024v-.122Zm-7.1-8.315a.149.149,0,0,0-.024.1l.049-.1Zm7.658,6.1-.024.024h.024Zm-.413,1.483c.024.024.024.024.049.024l.1-.268Zm-11.28.414.024.024v-.024Zm4.838.291v.073h.024v-.073Zm-5.786,1.337-.1.292a1.332,1.332,0,0,1,.17-.317ZM453.819,610.7c-.024,0-.024.024-.048.024C453.795,610.727,453.795,610.727,453.819,610.7Zm-17.664-40a30.865,30.865,0,0,1,26.724-31.647q.989-.131,2-.2,1.057-.072,2.108-.071h0a30.631,30.631,0,0,1,15.443,4.163,3.785,3.785,0,0,1,.525.367,30.863,30.863,0,0,1,12.764,15.252,3.8,3.8,0,0,1,.175.4,31.015,31.015,0,0,1,1.752,13.542q-.085.968-.231,1.93l0-.022A30.819,30.819,0,0,1,479.5,597.9l.259-.2a30.626,30.626,0,0,1-12.526,2.78,3.765,3.765,0,0,1-.676-.055,30.679,30.679,0,0,1-18.471-6.467,3.764,3.764,0,0,1-.6-.4,30.862,30.862,0,0,1-11.134-20.314Q436.2,571.987,436.155,570.7Zm32.375,22.166a23.191,23.191,0,0,0,8.77-2.367l0,0a23.288,23.288,0,0,0,3.921-2.464l.709-.608c.283-.254.556-.519.834-.777s.53-.545.794-.815a22.971,22.971,0,0,0,2.74-3.612,23.6,23.6,0,0,0,3.185-8.389,23.365,23.365,0,0,0-.193-8.926,23.131,23.131,0,0,0-9.9-14.4,23.43,23.43,0,0,0-17.238-3.407,22.952,22.952,0,0,0-3.729,1.024q-.875.373-1.714.817a23.431,23.431,0,0,0-11.4,13.373,23.131,23.131,0,0,0,1.18,17.436,23.43,23.43,0,0,0,13.095,11.716,22.96,22.96,0,0,0,4.39,1.131c.376.048.751.108,1.129.146s.757.068,1.136.092l1.141.045Zm-7.551-23.235a6.147,6.147,0,1,1,6.147,6.147A6.15,6.15,0,0,1,460.979,569.633Zm24.909,5.847a19.659,19.659,0,1,1-13.212-24.7,5,5,0,1,1-2.827,9.6,9.588,9.588,0,0,0-3.565-.353l.005,0a9.643,9.643,0,0,0-6.069,16.338l0-.005a9.58,9.58,0,0,0,4.1,2.5l.087.026a9.655,9.655,0,0,0,11.975-6.528,5,5,0,1,1,9.6,2.827Q485.935,575.332,485.889,575.48Zm-64.254,31.278a.812.812,0,0,1,.466.627.942.942,0,0,1-.222.78.7.7,0,0,1-.512.306,1.186,1.186,0,0,1-.635-.122,3.959,3.959,0,0,0-.772-.26,3.838,3.838,0,0,0-.849-.091,3.947,3.947,0,0,0-1.476.26,3.094,3.094,0,0,0-1.109.742,3.206,3.206,0,0,0-.7,1.14,4.254,4.254,0,0,0-.237,1.453,4.463,4.463,0,0,0,.268,1.621,3.164,3.164,0,0,0,.742,1.147,2.977,2.977,0,0,0,1.117.681,4.235,4.235,0,0,0,1.392.222,4.512,4.512,0,0,0,.826-.077,2.838,2.838,0,0,0,.8-.275,1.089,1.089,0,0,1,.635-.107.8.8,0,0,1,.528.321.923.923,0,0,1,.222.788.807.807,0,0,1-.466.589,5.436,5.436,0,0,1-.818.329,6.293,6.293,0,0,1-.849.2,5.507,5.507,0,0,1-.872.069,6.17,6.17,0,0,1-2.088-.352,5.285,5.285,0,0,1-1.759-1.04,4.812,4.812,0,0,1-1.216-1.721,6.018,6.018,0,0,1-.444-2.394,5.7,5.7,0,0,1,.405-2.172,5.041,5.041,0,0,1,1.147-1.721,5.287,5.287,0,0,1,1.751-1.132,5.854,5.854,0,0,1,2.2-.405,5.669,5.669,0,0,1,1.315.153A5.337,5.337,0,0,1,421.635,606.757Zm9.7-.536a.83.83,0,0,1,.643.268.951.951,0,0,1,.245.665v5.537a4.56,4.56,0,0,1-.543,2.248,3.947,3.947,0,0,1-1.491,1.529,4.694,4.694,0,0,1-4.413,0,3.929,3.929,0,0,1-1.5-1.529,4.555,4.555,0,0,1-.543-2.248v-5.537a.891.891,0,0,1,.275-.665.967.967,0,0,1,.7-.268.9.9,0,0,1,.635.268.88.88,0,0,1,.283.665v5.537a2.559,2.559,0,0,0,.329,1.323,2.348,2.348,0,0,0,2.027,1.17,2.533,2.533,0,0,0,1.224-.306,2.4,2.4,0,0,0,1.269-2.187v-5.537a.988.988,0,0,1,.229-.665A.782.782,0,0,1,431.332,606.222Zm3.457.283a.968.968,0,0,1,.7-.267.919.919,0,0,1,.65.267.878.878,0,0,1,.283.665v8.841a.868.868,0,0,1-.29.665.964.964,0,0,1-.673.268.9.9,0,0,1-.948-.933V607.17A.89.89,0,0,1,434.789,606.5Zm4.864-.267h3.656a4.457,4.457,0,0,1,1.958.413,4.091,4.091,0,0,1,1.445,1.155,5.164,5.164,0,0,1,.887,1.713,7.021,7.021,0,0,1,.3,2.073,6.634,6.634,0,0,1-.535,2.7,4.568,4.568,0,0,1-1.553,1.935,4.224,4.224,0,0,1-2.5.719h-3.656a.914.914,0,0,1-.933-.933V607.17a.914.914,0,0,1,.933-.933Zm3.5,1.759h-2.524v7.189h2.524a2.419,2.419,0,0,0,1.575-.5,2.854,2.854,0,0,0,.895-1.315,5.425,5.425,0,0,0,.283-1.782,5.692,5.692,0,0,0-.16-1.369,3.545,3.545,0,0,0-.5-1.147,2.4,2.4,0,0,0-2.1-1.078Zm30.839,1.54a.657.657,0,0,1,.292-.146l.17.219,1.24-.048c.948-.024,1.9-.146,2.844-.146a4.033,4.033,0,0,1,2.018.34l-.122.122.171.171-.122.242.194.049v.049l-1.045.145h1.021l-.049.073.122.048-.024.073a1.412,1.412,0,0,1-.875.243c-1.58.024-3.161.121-4.741.268-.583,1.823-1.24,3.622-1.726,5.47.875-.073,1.726-.219,2.6-.219a6.722,6.722,0,0,1,1.386.145v.073l-.219.121.316.194-.219.146.121.049-.024.1.146-.024.024.073-1.556.341a6.65,6.65,0,0,0,1.532-.219l-.024.122.146.024-.122.146a2.572,2.572,0,0,1-1.337.437c-1.07.122-2.164.268-3.233.365-.243,1-.486,1.994-.656,2.99a28.567,28.567,0,0,0-.656,4.522,2.1,2.1,0,0,0,.146.949c2.164,0,3.355-.729,5.2-1.678a4.608,4.608,0,0,1,1.386-.56l.413.2.1.194h.243l-.195.389.365-.268v.268l.195-.268.049.049a3.533,3.533,0,0,1-2.139,2.261c-.413.194-.851.437-1.288.608a8.373,8.373,0,0,1-2.675.462c-1.434,0-2.626-.073-3.622-1.216a5.078,5.078,0,0,1-.535-.729,5.555,5.555,0,0,1-.146-1.7,7.237,7.237,0,0,1,.073-1.021,54.528,54.528,0,0,1,2.456-9.8,23.07,23.07,0,0,1,1.045-2.529c.171-.365.389-.7.535-1.046a2.009,2.009,0,0,0,.122-.85A2.346,2.346,0,0,0,473.995,609.536Zm-2.6,12.5v.049c0-.024,0-.024.024-.049Zm.437-2.285v.024l.024-.024Zm-.195.8v.122h.024v-.1Zm5.13-10.7c-.024,0-.024.024-.048.024h.048Zm-5.276,11.4v.1h.024A.147.147,0,0,0,471.49,621.254Zm2.309-4.182.024.048h.1v-.048Zm5.519-6.564v.024h.073v-.024Zm-5.859,6.637v.024h.073v-.024Zm1.8-6.442v.049l2.7-.195h-.413C476.79,610.557,476.012,610.654,475.259,610.7Zm2.917-.194v.024h.122v-.024Zm.316,0c0,.024,0,.024.024.024v-.024Zm-4.157,6.515v.024h.024v-.024Zm2.65.778v.024c.024,0,.024,0,.024-.024Zm1.775-7.293v.024h.341v-.024Zm-3.4,7.245v.024h.341v-.024Zm-3.574,2.188v.048l.024-.048Zm.195-.875c0,.024,0,.024.024.049v-.073Zm-.438,2.018v.024a.089.089,0,0,0,.024-.073Zm1.507-3.063.024.073c.535-.1,1.046-.17,1.58-.243l-.024-.048A11.163,11.163,0,0,0,473.046,618.021Zm-1,.851-.024.024h.024Zm-.316,1.264v.049h.024v-.049Zm3.087-2.358v.048h.34l-.024-.048Zm5.54,1.845v2.433a.592.592,0,0,1-.2.454.657.657,0,0,1-.459.183.617.617,0,0,1-.647-.637v-6.034a.608.608,0,0,1,.188-.454.661.661,0,0,1,.48-.183.627.627,0,0,1,.444.183.6.6,0,0,1,.193.454v2.4h3.33v-2.4a.593.593,0,0,1,.2-.454.658.658,0,0,1,.459-.183.617.617,0,0,1,.647.637v6.034a.616.616,0,0,1-.183.454.656.656,0,0,1-.486.183.627.627,0,0,1-.444-.183.6.6,0,0,1-.193-.454v-2.433Zm7.507,1.869H490.7a.616.616,0,0,1,.454.183.58.58,0,0,1,.183.423.554.554,0,0,1-.183.428.647.647,0,0,1-.454.167h-3.5a.624.624,0,0,1-.637-.637v-6.034a.624.624,0,0,1,.637-.637h3.5a.636.636,0,0,1,.454.172.583.583,0,0,1,.183.444.538.538,0,0,1-.183.423.66.66,0,0,1-.454.162h-2.829v1.775h2.359a.636.636,0,0,1,.454.172.582.582,0,0,1,.183.444.538.538,0,0,1-.183.423.66.66,0,0,1-.454.162h-2.359Zm5.636-.439-.542,1.274a.642.642,0,0,1-.224.308.549.549,0,0,1-.329.11.523.523,0,0,1-.418-.157.569.569,0,0,1-.136-.386.693.693,0,0,1,.031-.2l2.6-6.243a.681.681,0,0,1,.256-.323.547.547,0,0,1,.371-.094.611.611,0,0,1,.35.11.618.618,0,0,1,.235.308l2.568,6.118a.7.7,0,0,1,.052.251.6.6,0,0,1-.585.616.548.548,0,0,1-.339-.115.746.746,0,0,1-.235-.313l-.542-1.263Zm2.6-1.2-1.049-2.443-1.039,2.443Zm4.409,1.618h2.725a.637.637,0,0,1,.454.172.583.583,0,0,1,.183.444.57.57,0,0,1-.183.433.637.637,0,0,1-.454.172h-3.393a.624.624,0,0,1-.637-.637v-6.034a.608.608,0,0,1,.188-.454.661.661,0,0,1,.48-.183.627.627,0,0,1,.444.183.6.6,0,0,1,.193.454Zm5.324-4.886H504.2a.647.647,0,0,1-.454-.167.566.566,0,0,1-.183-.438.55.55,0,0,1,.183-.433.66.66,0,0,1,.454-.162h4.635a.648.648,0,0,1,.454.167.566.566,0,0,1,.183.438.55.55,0,0,1-.183.433.66.66,0,0,1-.454.162h-1.639v5.471a.6.6,0,0,1-.193.454.692.692,0,0,1-.5.183.66.66,0,0,1-.48-.183.608.608,0,0,1-.188-.454Zm6.034,3.038v2.433a.592.592,0,0,1-.2.454.658.658,0,0,1-.459.183.617.617,0,0,1-.647-.637v-6.034a.608.608,0,0,1,.188-.454.661.661,0,0,1,.48-.183.627.627,0,0,1,.444.183.6.6,0,0,1,.193.454v2.4h3.33v-2.4a.593.593,0,0,1,.2-.454.658.658,0,0,1,.459-.183.617.617,0,0,1,.647.637v6.034a.616.616,0,0,1-.183.454.656.656,0,0,1-.485.183.627.627,0,0,1-.444-.183.6.6,0,0,1-.193-.454v-2.433Z" transform="translate(-413.604 -538.784)" fill="#673583" fill-rule="evenodd"/>
</svg>
